<svg data-v-423bf9ae="" xmlns="http://www.w3.org/2000/svg" viewBox="0 0 666.8632397467837 163" class="iconAbove"><!----><!----><!----><g data-v-423bf9ae="" id="a2586e5e-93a9-409c-926a-35b205d41522" fill="white" transform="matrix(4.316546584895844,0,0,4.316546584895844,-3.6690652869306746,105.58992984199134)"><path d="M0.85 10.50L0.85-0.42L4.20-0.42L4.20-0.42Q7.64-0.42 7.64 2.52L7.64 2.52L7.64 2.80L7.64 2.80Q7.64 4.26 6.43 4.87L6.43 4.87L6.43 4.87Q7.92 5.52 7.92 7.15L7.92 7.15L7.92 7.43L7.92 7.43Q7.92 10.50 4.34 10.50L4.34 10.50L0.85 10.50ZM4.41 5.73L4.41 5.73L2.73 5.73L2.73 8.86L4.41 8.86L4.41 8.86Q5.10 8.86 5.56 8.51L5.56 8.51L5.56 8.51Q6.02 8.16 6.02 7.38L6.02 7.38L6.02 7.22L6.02 7.22Q6.02 6.44 5.56 6.08L5.56 6.08L5.56 6.08Q5.10 5.73 4.41 5.73ZM4.20 1.22L4.20 1.22L2.73 1.22L2.73 4.09L4.20 4.09L4.20 4.09Q5.74 4.09 5.74 2.74L5.74 2.74L5.74 2.56L5.74 2.56Q5.74 1.22 4.20 1.22ZM15.86 6.61L15.86 7.46L10.96 7.46L10.96 7.46Q11.06 9.27 12.63 9.27L12.63 9.27L12.63 9.27Q13.33 9.27 13.73 8.93L13.73 8.93L13.73 8.93Q14.14 8.58 14.14 8.12L14.14 8.12L15.86 8.12L15.86 8.18L15.86 8.18Q15.86 9.23 15.00 9.95L15.00 9.95L15.00 9.95Q14.14 10.68 12.61 10.68L12.61 10.68L12.61 10.68Q10.89 10.68 10.02 9.66L10.02 9.66L10.02 9.66Q9.14 8.64 9.14 6.97L9.14 6.97L9.14 6.61L9.14 6.61Q9.14 4.94 10.01 3.92L10.01 3.92L10.01 3.92Q10.88 2.90 12.54 2.90L12.54 2.90L12.54 2.90Q14.18 2.90 15.02 3.92L15.02 3.92L15.02 3.92Q15.86 4.94 15.86 6.61L15.86 6.61ZM12.50 4.31L12.50 4.31L12.50 4.31Q11.07 4.31 10.96 6.12L10.96 6.12L14.03 6.12L14.03 6.12Q13.94 4.31 12.50 4.31ZM20.06 9.27L20.06 9.27L20.06 9.27Q20.69 9.27 21.01 9.02L21.01 9.02L21.01 9.02Q21.34 8.76 21.34 8.34L21.34 8.34L21.34 8.34Q21.34 7.87 21.03 7.67L21.03 7.67L21.03 7.67Q20.72 7.46 19.92 7.39L19.92 7.39L19.92 7.39Q18.38 7.27 17.72 6.80L17.72 6.80L17.72 6.80Q17.07 6.33 17.07 5.35L17.07 5.35L17.07 5.24L17.07 5.24Q17.07 4.09 17.88 3.49L17.88 3.49L17.88 3.49Q18.70 2.90 20.06 2.90L20.06 2.90L20.06 2.90Q23.07 2.90 23.07 5.43L23.07 5.43L23.07 5.50L21.29 5.50L21.29 5.50Q21.29 4.31 20.06 4.31L20.06 4.31L20.06 4.31Q19.49 4.31 19.17 4.55L19.17 4.55L19.17 4.55Q18.86 4.79 18.86 5.19L18.86 5.19L18.86 5.19Q18.86 5.63 19.14 5.83L19.14 5.83L19.14 5.83Q19.43 6.03 20.22 6.09L20.22 6.09L20.22 6.09Q21.73 6.22 22.44 6.66L22.44 6.66L22.44 6.66Q23.16 7.11 23.16 8.18L23.16 8.18L23.16 8.27L23.16 8.27Q23.16 9.39 22.36 10.04L22.36 10.04L22.36 10.04Q21.57 10.68 20.06 10.68L20.06 10.68L20.06 10.68Q18.54 10.68 17.75 10.00L17.75 10.00L17.75 10.00Q16.97 9.31 16.97 8.23L16.97 8.23L16.97 8.18L18.77 8.18L18.77 8.18Q18.77 9.27 20.06 9.27ZM27.02 0.98L27.02 3.08L29.08 3.08L29.08 4.68L27.02 4.68L27.02 7.88L27.02 7.88Q27.02 8.58 27.31 8.83L27.31 8.83L27.31 8.83Q27.61 9.09 28.22 9.09L28.22 9.09L28.22 9.09Q28.74 9.09 28.94 8.99L28.94 8.99L28.94 10.50L28.94 10.50Q28.57 10.68 27.79 10.68L27.79 10.68L27.79 10.68Q25.20 10.68 25.20 8.08L25.20 8.08L25.20 4.68L24.07 4.68L24.07 3.08L25.20 3.08L25.20 0.98L27.02 0.98ZM34.97 4.76L34.97 5.32L34.97 5.32Q34.97 7.24 35.43 8.14L35.43 8.14L35.43 8.14Q35.90 9.04 37.03 9.04L37.03 9.04L37.16 9.04L37.16 9.04Q38.92 9.04 38.92 6.82L38.92 6.82L40.81 6.82L40.81 6.96L40.81 6.96Q40.81 8.88 39.88 9.78L39.88 9.78L39.88 9.78Q38.95 10.68 37.04 10.68L37.04 10.68L37.04 10.68Q34.99 10.68 34.02 9.41L34.02 9.41L34.02 9.41Q33.05 8.13 33.05 5.32L33.05 5.32L33.05 4.76L33.05 4.76Q33.05 1.95 34.02 0.67L34.02 0.67L34.02 0.67Q34.99-0.60 37.04-0.60L37.04-0.60L37.04-0.60Q38.95-0.60 39.88 0.31L39.88 0.31L39.88 0.31Q40.81 1.23 40.81 3.21L40.81 3.21L40.81 3.68L38.92 3.68L38.92 3.68Q38.92 2.32 38.52 1.68L38.52 1.68L38.52 1.68Q38.12 1.04 37.16 1.04L37.16 1.04L37.03 1.04L37.03 1.04Q35.90 1.04 35.43 1.94L35.43 1.94L35.43 1.94Q34.97 2.84 34.97 4.76L34.97 4.76ZM47.78 9.68L47.78 9.68L47.78 9.68Q46.94 10.68 45.26 10.68L45.26 10.68L45.26 10.68Q43.58 10.68 42.74 9.68L42.74 9.68L42.74 9.68Q41.90 8.68 41.90 7.01L41.90 7.01L41.90 6.57L41.90 6.57Q41.90 4.89 42.74 3.89L42.74 3.89L42.74 3.89Q43.58 2.90 45.26 2.90L45.26 2.90L45.26 2.90Q46.94 2.90 47.78 3.89L47.78 3.89L47.78 3.89Q48.62 4.89 48.62 6.57L48.62 6.57L48.62 7.01L48.62 7.01Q48.62 8.68 47.78 9.68ZM43.72 7.01L43.72 7.01Q43.72 9.09 45.26 9.09L45.26 9.09L45.26 9.09Q46.80 9.09 46.80 7.01L46.80 7.01L46.80 6.57L46.80 6.57Q46.80 4.48 45.26 4.48L45.26 4.48L45.26 4.48Q43.72 4.48 43.72 6.57L43.72 6.57L43.72 7.01ZM60.24 5.31L60.24 10.50L58.42 10.50L58.42 5.59L58.42 5.59Q58.42 4.48 57.37 4.48L57.37 4.48L57.37 4.48Q56.53 4.48 56.00 5.28L56.00 5.28L56.00 10.50L54.19 10.50L54.19 5.59L54.19 5.59Q54.19 4.48 53.13 4.48L53.13 4.48L53.13 4.48Q52.28 4.48 51.77 5.28L51.77 5.28L51.77 10.50L49.95 10.50L49.95 5.18L49.83 3.08L51.44 3.08L51.59 4.00L51.59 4.00Q52.37 2.90 53.84 2.90L53.84 2.90L53.84 2.90Q55.26 2.90 55.76 4.07L55.76 4.07L55.76 4.07Q56.52 2.90 58.07 2.90L58.07 2.90L58.07 2.90Q59.15 2.90 59.70 3.56L59.70 3.56L59.70 3.56Q60.24 4.21 60.24 5.31L60.24 5.31ZM72.06 5.31L72.06 10.50L70.24 10.50L70.24 5.59L70.24 5.59Q70.24 4.48 69.19 4.48L69.19 4.48L69.19 4.48Q68.35 4.48 67.82 5.28L67.82 5.28L67.82 10.50L66.01 10.50L66.01 5.59L66.01 5.59Q66.01 4.48 64.95 4.48L64.95 4.48L64.95 4.48Q64.09 4.48 63.59 5.28L63.59 5.28L63.59 10.50L61.77 10.50L61.77 5.18L61.64 3.08L63.25 3.08L63.41 4.00L63.41 4.00Q64.19 2.90 65.66 2.90L65.66 2.90L65.66 2.90Q67.07 2.90 67.58 4.07L67.58 4.07L67.58 4.07Q68.33 2.90 69.89 2.90L69.89 2.90L69.89 2.90Q70.97 2.90 71.51 3.56L71.51 3.56L71.51 3.56Q72.06 4.21 72.06 5.31L72.06 5.31ZM73.50 8.15L73.50 3.08L75.31 3.08L75.31 7.87L75.31 7.87Q75.31 9.09 76.50 9.09L76.50 9.09L76.50 9.09Q77.50 9.09 78.04 8.25L78.04 8.25L78.04 3.08L79.86 3.08L79.86 8.40L79.97 10.50L78.36 10.50L78.19 9.52L78.19 9.52Q77.39 10.68 75.78 10.68L75.78 10.68L75.78 10.68Q74.63 10.68 74.07 9.97L74.07 9.97L74.07 9.97Q73.50 9.25 73.50 8.15L73.50 8.15ZM87.81 5.42L87.81 10.50L86.00 10.50L86.00 5.71L86.00 5.71Q86.00 5.15 85.71 4.82L85.71 4.82L85.71 4.82Q85.41 4.48 84.83 4.48L84.83 4.48L84.83 4.48Q83.80 4.48 83.29 5.33L83.29 5.33L83.29 10.50L81.47 10.50L81.47 5.18L81.34 3.08L82.95 3.08L83.12 4.06L83.12 4.06Q83.92 2.90 85.53 2.90L85.53 2.90L85.53 2.90Q86.67 2.90 87.24 3.61L87.24 3.61L87.24 3.61Q87.81 4.33 87.81 5.42L87.81 5.42ZM91.20 10.50L89.38 10.50L89.38 3.08L91.20 3.08L91.20 10.50ZM89.29-0.18L91.28-0.18L91.28 1.79L89.29 1.79L89.29-0.18ZM95.31 0.98L95.31 3.08L97.37 3.08L97.37 4.68L95.31 4.68L95.31 7.88L95.31 7.88Q95.31 8.58 95.61 8.83L95.61 8.83L95.61 8.83Q95.90 9.09 96.52 9.09L96.52 9.09L96.52 9.09Q97.03 9.09 97.23 8.99L97.23 8.99L97.23 10.50L97.23 10.50Q96.87 10.68 96.08 10.68L96.08 10.68L96.08 10.68Q93.49 10.68 93.49 8.08L93.49 8.08L93.49 4.68L92.36 4.68L92.36 3.08L93.49 3.08L93.49 0.98L95.31 0.98ZM100.06 3.08L101.68 8.23L103.32 3.08L105.28 3.08L102.66 10.14L101.68 13.30L99.53 13.30L100.70 10.14L98.08 3.08L100.06 3.08ZM112.21 5.74L112.21 5.74L112.21 5.74Q110.42 5.50 109.59 4.77L109.59 4.77L109.59 4.77Q108.77 4.05 108.77 2.70L108.77 2.70L108.77 2.56L108.77 2.56Q108.77 1.11 109.75 0.25L109.75 0.25L109.75 0.25Q110.74-0.60 112.50-0.60L112.50-0.60L112.50-0.60Q114.42-0.60 115.33 0.31L115.33 0.31L115.33 0.31Q116.23 1.22 116.23 3.08L116.23 3.08L116.23 3.40L114.35 3.40L114.35 3.40Q114.35 2.17 113.92 1.60L113.92 1.60L113.92 1.60Q113.48 1.04 112.52 1.04L112.52 1.04L112.39 1.04L112.39 1.04Q111.62 1.04 111.15 1.43L111.15 1.43L111.15 1.43Q110.68 1.82 110.68 2.46L110.68 2.46L110.68 2.55L110.68 2.55Q110.68 3.26 111.13 3.64L111.13 3.64L111.13 3.64Q111.58 4.02 112.81 4.19L112.81 4.19L112.81 4.19Q114.63 4.44 115.48 5.15L115.48 5.15L115.48 5.15Q116.33 5.87 116.33 7.28L116.33 7.28L116.33 7.43L116.33 7.43Q116.33 8.97 115.33 9.83L115.33 9.83L115.33 9.83Q114.32 10.68 112.50 10.68L112.50 10.68L112.50 10.68Q108.67 10.68 108.67 6.96L108.67 6.96L108.67 6.82L110.54 6.82L110.54 6.82Q110.54 9.04 112.43 9.04L112.43 9.04L112.56 9.04L112.56 9.04Q113.43 9.04 113.92 8.62L113.92 8.62L113.92 8.62Q114.41 8.20 114.41 7.50L114.41 7.50L114.41 7.42L114.41 7.42Q114.41 6.69 113.92 6.30L113.92 6.30L113.92 6.30Q113.43 5.91 112.21 5.74ZM124.07 6.61L124.07 7.46L119.17 7.46L119.17 7.46Q119.27 9.27 120.83 9.27L120.83 9.27L120.83 9.27Q121.53 9.27 121.94 8.93L121.94 8.93L121.94 8.93Q122.35 8.58 122.35 8.12L122.35 8.12L124.07 8.12L124.07 8.18L124.07 8.18Q124.07 9.23 123.21 9.95L123.21 9.95L123.21 9.95Q122.35 10.68 120.82 10.68L120.82 10.68L120.82 10.68Q119.10 10.68 118.22 9.66L118.22 9.66L118.22 9.66Q117.35 8.64 117.35 6.97L117.35 6.97L117.35 6.61L117.35 6.61Q117.35 4.94 118.22 3.92L118.22 3.92L118.22 3.92Q119.08 2.90 120.75 2.90L120.75 2.90L120.75 2.90Q122.39 2.90 123.23 3.92L123.23 3.92L123.23 3.92Q124.07 4.94 124.07 6.61L124.07 6.61ZM120.71 4.31L120.71 4.31L120.71 4.31Q119.28 4.31 119.17 6.12L119.17 6.12L122.23 6.12L122.23 6.12Q122.15 4.31 120.71 4.31ZM129.04 2.90L129.04 2.90L129.04 2.90Q129.08 2.90 129.16 2.91L129.16 2.91L129.16 2.91Q129.23 2.91 129.25 2.91L129.25 2.91L129.25 4.68L128.94 4.68L128.94 4.68Q127.74 4.68 127.22 5.46L127.22 5.46L127.22 10.50L125.40 10.50L125.40 5.18L125.27 3.08L126.88 3.08L127.04 3.98L127.04 3.98Q127.78 2.90 129.04 2.90ZM134.76 10.50L132.24 10.50L129.93 3.08L131.84 3.08L133.50 8.99L135.17 3.08L137.06 3.08L134.76 10.50ZM139.93 10.50L138.11 10.50L138.11 3.08L139.93 3.08L139.93 10.50ZM138.03-0.18L140.01-0.18L140.01 1.79L138.03 1.79L138.03-0.18ZM143.09 6.57L143.09 7.01L143.09 7.01Q143.09 9.09 144.59 9.09L144.59 9.09L144.59 9.09Q145.25 9.09 145.58 8.73L145.58 8.73L145.58 8.73Q145.91 8.37 145.91 7.80L145.91 7.80L147.63 7.80L147.63 8.09L147.63 8.09Q147.63 9.23 146.84 9.95L146.84 9.95L146.84 9.95Q146.05 10.68 144.55 10.68L144.55 10.68L144.55 10.68Q142.91 10.68 142.09 9.68L142.09 9.68L142.09 9.68Q141.27 8.68 141.27 7.01L141.27 7.01L141.27 6.57L141.27 6.57Q141.27 4.89 142.09 3.89L142.09 3.89L142.09 3.89Q142.91 2.90 144.55 2.90L144.55 2.90L144.55 2.90Q146.06 2.90 146.85 3.65L146.85 3.65L146.85 3.65Q147.63 4.41 147.63 5.60L147.63 5.60L147.63 5.91L145.91 5.91L145.91 5.91Q145.91 5.24 145.58 4.86L145.58 4.86L145.58 4.86Q145.25 4.48 144.59 4.48L144.59 4.48L144.59 4.48Q143.09 4.48 143.09 6.57L143.09 6.57ZM155.34 6.61L155.34 7.46L150.44 7.46L150.44 7.46Q150.54 9.27 152.11 9.27L152.11 9.27L152.11 9.27Q152.81 9.27 153.22 8.93L153.22 8.93L153.22 8.93Q153.62 8.58 153.62 8.12L153.62 8.12L155.34 8.12L155.34 8.18L155.34 8.18Q155.34 9.23 154.48 9.95L154.48 9.95L154.48 9.95Q153.62 10.68 152.10 10.68L152.10 10.68L152.10 10.68Q150.37 10.68 149.50 9.66L149.50 9.66L149.50 9.66Q148.62 8.64 148.62 6.97L148.62 6.97L148.62 6.61L148.62 6.61Q148.62 4.94 149.49 3.92L149.49 3.92L149.49 3.92Q150.36 2.90 152.03 2.90L152.03 2.90L152.03 2.90Q153.66 2.90 154.50 3.92L154.50 3.92L154.50 3.92Q155.34 4.94 155.34 6.61L155.34 6.61ZM151.98 4.31L151.98 4.31L151.98 4.31Q150.56 4.31 150.44 6.12L150.44 6.12L153.51 6.12L153.51 6.12Q153.43 4.31 151.98 4.31Z"></path></g><!----><g data-v-423bf9ae="" id="f897ce4f-f07a-40a1-aa9b-0a4c107e388f" transform="matrix(3.0170176040519894,0,0,3.0170176040519894,183.533510007008,-105.7654834576638)" stroke="none" fill="white"><path d="M97.441 36.994c.011.014 1.084.667 1.173 2.568.047 1.046-.846 2.409-3.886 3.551 0 0-12.809 5.261-27.831 14.864 0 0-1.724 1.08-3.737.938-10.012-1.203-20.854-1.202-21.968-1.161-6.467.236-14.027.997-20.849 7.161 0 0-16.051-3.6-18.959-13.22-.001-.011 19.267-5.537 29.931-14.36 3.517-2.911 7.218-2.218 8.647-2.08 2.075.197 6.145 1.792 11.812 2.51 2.939.371 7.156.633 11.083.959 6.109.509 8.078 1.666 8.016 5.148-.021 1.234-1.173 4.335-6.005 4.155-1.057-.039-3.586-.259-5.346-.359-1.609-.092-4.397-.117-7.942 0-2.839.095-4.935 1.061-4.935 1.061s2.976.395 4.048.527c3.301.411 7.587 1.028 11.54 1.106 3.958.078 7.007-.437 8.986-2.168 2.899-2.85 2.098-5.636 1.611-7.16 0 0 17.12-5.045 18.29-5.223 2.357-.359 5.286.012 6.321 1.183z"></path></g><!----></svg>